name rise30.2954peak35.7071fall66.7804.mot
datacolumns 19
datarows 18
range 15.41160800000000 15.43994500000000
endheader
time	ground_force1_vx	ground_force1_vy	ground_force1_vz	ground_force1_px	ground_force1_py	ground_force1_pz	ground_force2_vx	ground_force2_vy	ground_force2_vz	ground_force2_px	ground_force2_py	ground_force2_pz	ground_torque1_x	ground_torque1_y	ground_torque1_z	ground_torque2_x	ground_torque2_y	ground_torque2_z	
15.41160800000000	3.43316500000000	699.21190600000000	49.47585700000000	0.14651700000000	0.00000000000000	0.14686900000000	0.00000000000000	0.00000000000000	0.00000000000000	0.00000000000000	0.00000000000000	0.00000000000000	0.00000000000000	13.68495500000000	0.00000000000000	0.00000000000000	0.00000000000000	0.00000000000000	
15.41328000000000	3.02733700000000	700.33476700000006	49.58134300000000	0.14542500000000	0.00000000000000	0.14686300000000	0.00000000000000	0.00000000000000	0.00000000000000	0.00000000000000	0.00000000000000	0.00000000000000	0.00000000000000	13.75727300000000	0.00000000000000	0.00000000000000	0.00000000000000	0.00000000000000	
15.41494500000000	2.60457000000000	701.51051700000005	49.69153900000000	0.14431300000000	0.00000000000000	0.14685600000000	0.00000000000000	0.00000000000000	0.00000000000000	0.00000000000000	0.00000000000000	0.00000000000000	0.00000000000000	13.83490400000000	0.00000000000000	0.00000000000000	0.00000000000000	0.00000000000000	
15.41661600000000	2.16475900000000	702.73834599999998	49.80619900000000	0.14318100000000	0.00000000000000	0.14684800000000	0.00000000000000	0.00000000000000	0.00000000000000	0.00000000000000	0.00000000000000	0.00000000000000	0.00000000000000	13.91781100000000	0.00000000000000	0.00000000000000	0.00000000000000	0.00000000000000	
15.41828300000000	1.70786100000000	704.01742500000000	49.92508600000000	0.14203100000000	0.00000000000000	0.14684000000000	0.00000000000000	0.00000000000000	0.00000000000000	0.00000000000000	0.00000000000000	0.00000000000000	0.00000000000000	14.00595000000000	0.00000000000000	0.00000000000000	0.00000000000000	0.00000000000000	
15.41995200000000	1.23389100000000	705.34691199999997	50.04797300000000	0.14086400000000	0.00000000000000	0.14683000000000	0.00000000000000	0.00000000000000	0.00000000000000	0.00000000000000	0.00000000000000	0.00000000000000	0.00000000000000	14.09926900000000	0.00000000000000	0.00000000000000	0.00000000000000	0.00000000000000	
15.42161100000000	0.74292500000000	706.72594900000001	50.17464000000000	0.13968100000000	0.00000000000000	0.14682000000000	0.00000000000000	0.00000000000000	0.00000000000000	0.00000000000000	0.00000000000000	0.00000000000000	0.00000000000000	14.19770800000000	0.00000000000000	0.00000000000000	0.00000000000000	0.00000000000000	
15.42327800000000	0.23510000000000	708.15365599999996	50.30487500000000	0.13848400000000	0.00000000000000	0.14680900000000	0.00000000000000	0.00000000000000	0.00000000000000	0.00000000000000	0.00000000000000	0.00000000000000	0.00000000000000	14.30119800000000	0.00000000000000	0.00000000000000	0.00000000000000	0.00000000000000	
15.42494700000000	-0.28938900000000	709.62913800000001	50.43847800000000	0.13727600000000	0.00000000000000	0.14679700000000	0.00000000000000	0.00000000000000	0.00000000000000	0.00000000000000	0.00000000000000	0.00000000000000	0.00000000000000	14.40966400000000	0.00000000000000	0.00000000000000	0.00000000000000	0.00000000000000	
15.42661500000000	-0.83028800000000	711.15147500000000	50.57525600000000	0.13605700000000	0.00000000000000	0.14678400000000	0.00000000000000	0.00000000000000	0.00000000000000	0.00000000000000	0.00000000000000	0.00000000000000	0.00000000000000	14.52301700000000	0.00000000000000	0.00000000000000	0.00000000000000	0.00000000000000	
15.42828100000000	-1.38728700000000	712.71972700000003	50.71502600000000	0.13483000000000	0.00000000000000	0.14677000000000	0.00000000000000	0.00000000000000	0.00000000000000	0.00000000000000	0.00000000000000	0.00000000000000	0.00000000000000	14.64116300000000	0.00000000000000	0.00000000000000	0.00000000000000	0.00000000000000	
15.42994900000000	-1.96001900000000	714.33292600000004	50.85761300000000	0.13359600000000	0.00000000000000	0.14675500000000	0.00000000000000	0.00000000000000	0.00000000000000	0.00000000000000	0.00000000000000	0.00000000000000	0.00000000000000	14.76399600000000	0.00000000000000	0.00000000000000	0.00000000000000	0.00000000000000	
15.43160800000000	-2.54806600000000	715.99007600000004	51.00285400000000	0.13235800000000	0.00000000000000	0.14673800000000	0.00000000000000	0.00000000000000	0.00000000000000	0.00000000000000	0.00000000000000	0.00000000000000	0.00000000000000	14.89140200000000	0.00000000000000	0.00000000000000	0.00000000000000	0.00000000000000	
15.43327600000000	-3.15095400000000	717.69015100000001	51.15059200000000	0.13111700000000	0.00000000000000	0.14672000000000	0.00000000000000	0.00000000000000	0.00000000000000	0.00000000000000	0.00000000000000	0.00000000000000	0.00000000000000	15.02325400000000	0.00000000000000	0.00000000000000	0.00000000000000	0.00000000000000	
15.43494800000000	-3.76816300000000	719.43209000000002	51.30068000000000	0.12987600000000	0.00000000000000	0.14670100000000	0.00000000000000	0.00000000000000	0.00000000000000	0.00000000000000	0.00000000000000	0.00000000000000	0.00000000000000	15.15941800000000	0.00000000000000	0.00000000000000	0.00000000000000	0.00000000000000	
15.43661800000000	-4.39912200000000	721.21479599999998	51.45298000000000	0.12863600000000	0.00000000000000	0.14668100000000	0.00000000000000	0.00000000000000	0.00000000000000	0.00000000000000	0.00000000000000	0.00000000000000	0.00000000000000	15.29974700000000	0.00000000000000	0.00000000000000	0.00000000000000	0.00000000000000	
15.43828300000000	-5.04321600000000	723.03713100000004	51.60736200000000	0.12739900000000	0.00000000000000	0.14665900000000	0.00000000000000	0.00000000000000	0.00000000000000	0.00000000000000	0.00000000000000	0.00000000000000	0.00000000000000	15.44408500000000	0.00000000000000	0.00000000000000	0.00000000000000	0.00000000000000	
15.43994500000000	-5.69978700000000	724.89791400000001	51.76370500000000	0.12616600000000	0.00000000000000	0.14663500000000	0.00000000000000	0.00000000000000	0.00000000000000	0.00000000000000	0.00000000000000	0.00000000000000	0.00000000000000	15.59226600000000	0.00000000000000	0.00000000000000	0.00000000000000	0.00000000000000	
